<svg xmlns="http://www.w3.org/2000/svg" xmlns:xlink="http://www.w3.org/1999/xlink" width="618" zoomAndPan="magnify" viewBox="0 0 463.5 362.250002" height="483" preserveAspectRatio="xMidYMid meet" version="1.0"><defs><g/></defs><g fill="#0097b2" fill-opacity="1"><g transform="translate(274.812173, 216.222767)"><g><path d="M 58.445312 -50.269531 C 57.492188 -39.917969 56.464844 -33.382812 55.359375 -30.664062 L 55.316406 -30.558594 L 55.269531 -30.453125 C 53.238281 -26.007812 49.882812 -23.304688 45.207031 -22.347656 C 42 -21.6875 38.699219 -22.046875 35.304688 -23.425781 C 31.847656 -24.828125 29.160156 -27.050781 27.246094 -30.097656 C 19.449219 -42.25 14.871094 -49.625 13.511719 -52.230469 L 18.269531 -54.710938 L 20.136719 -49.683594 L 18.371094 -49.027344 L 16.507812 -54.058594 L 21.609375 -55.710938 C 22.617188 -52.601562 26.523438 -43.367188 33.332031 -28.015625 L 36.269531 -21.492188 L 31.378906 -19.289062 L 34.96875 -23.273438 C 37.515625 -20.980469 39.109375 -18.277344 39.746094 -15.164062 C 40.238281 -12.761719 40.101562 -10.433594 39.328125 -8.179688 C 38.605469 -6.066406 37.351562 -4.109375 35.566406 -2.304688 C 32.386719 0.910156 28.769531 2.929688 24.71875 3.761719 C 21.835938 4.355469 19.050781 4.023438 16.363281 2.773438 C 13.996094 1.671875 11.804688 -0.128906 9.78125 -2.632812 C 6.234375 -7.023438 3.988281 -11.515625 3.046875 -16.105469 L 8.300781 -17.183594 L 3.65625 -14.496094 C 1.625 -18.019531 -1.144531 -25.972656 -4.644531 -38.367188 C -8.0625 -50.453125 -10.558594 -60.34375 -12.136719 -68.039062 L -17.800781 -95.644531 C -18.578125 -99.429688 -17.890625 -102.953125 -15.738281 -106.21875 C -13.585938 -109.480469 -10.570312 -111.511719 -6.691406 -112.308594 C -2.90625 -113.085938 0.621094 -112.398438 3.882812 -110.246094 C 7.148438 -108.09375 9.167969 -105.125 9.945312 -101.335938 L 10.171875 -100.214844 L 4.917969 -99.136719 L 2.832031 -104.078125 C 3.605469 -104.40625 4.585938 -104.691406 5.773438 -104.933594 C 11.761719 -106.164062 17.542969 -103.253906 23.113281 -96.210938 C 27.519531 -90.636719 34 -79.808594 42.554688 -63.722656 L 37.820312 -61.207031 L 32.484375 -61.765625 C 33.542969 -71.832031 33.976562 -78.648438 33.785156 -82.21875 L 33.777344 -82.375 L 33.777344 -82.53125 C 33.851562 -97.898438 33.914062 -106.203125 33.96875 -107.449219 L 39.328125 -107.222656 L 33.964844 -107.167969 C 33.933594 -110.179688 34.53125 -112.6875 35.75 -114.699219 C 37.25 -117.171875 39.464844 -118.710938 42.394531 -119.3125 C 47.480469 -120.355469 52.945312 -119.15625 58.78125 -115.710938 L 59.816406 -115.101562 L 60.492188 -114.109375 C 62.226562 -111.558594 64.203125 -106.152344 66.421875 -97.886719 C 68.515625 -90.101562 70.9375 -79.5 73.6875 -66.082031 L 77.570312 -47.167969 L 79.785156 -36.378906 L 74.53125 -35.300781 L 79.648438 -36.902344 L 82.1875 -28.808594 C 83.910156 -23.335938 84.9375 -19.808594 85.261719 -18.226562 L 80.007812 -17.148438 L 85.214844 -18.425781 C 86.175781 -14.527344 85.578125 -10.898438 83.421875 -7.53125 C 81.28125 -4.1875 78.257812 -2.113281 74.347656 -1.3125 C 70.589844 -0.539062 67.09375 -1.191406 63.851562 -3.261719 C 60.636719 -5.320312 58.578125 -8.148438 57.683594 -11.753906 L 56.679688 -15.90625 L 49.449219 -50.425781 L 49.414062 -50.589844 L 54.671875 -51.667969 L 57.355469 -47.023438 L 55.789062 -46.117188 L 53.105469 -50.761719 Z M 48.015625 -54.015625 L 58.429688 -60.035156 L 59.949219 -52.625 L 67.164062 -18.183594 L 61.914062 -17.085938 L 67.128906 -18.34375 L 68.09375 -14.347656 C 68.300781 -13.503906 68.816406 -12.824219 69.632812 -12.300781 C 70.425781 -11.792969 71.28125 -11.632812 72.191406 -11.820312 C 73.140625 -12.015625 73.875 -12.515625 74.386719 -13.316406 C 74.886719 -14.097656 75.023438 -14.949219 74.796875 -15.867188 L 74.773438 -15.96875 L 74.753906 -16.070312 C 74.503906 -17.289062 73.566406 -20.46875 71.949219 -25.601562 L 69.332031 -33.953125 L 67.0625 -45.011719 L 63.179688 -63.925781 C 60.46875 -77.132812 58.097656 -87.527344 56.0625 -95.101562 C 54.15625 -102.199219 52.675781 -106.523438 51.621094 -108.074219 L 56.058594 -111.089844 L 53.332031 -106.472656 C 49.867188 -108.515625 46.941406 -109.292969 44.550781 -108.804688 L 44.519531 -108.796875 C 44.5625 -108.816406 44.609375 -108.84375 44.660156 -108.875 C 44.777344 -108.957031 44.867188 -109.042969 44.921875 -109.136719 C 44.757812 -108.867188 44.683594 -108.246094 44.691406 -107.273438 L 44.695312 -107.132812 L 44.6875 -106.992188 C 44.640625 -105.882812 44.582031 -97.710938 44.507812 -82.480469 L 39.144531 -82.503906 L 44.5 -82.792969 C 44.722656 -78.65625 44.273438 -71.273438 43.152344 -60.644531 L 41.316406 -43.199219 L 33.082031 -58.6875 C 24.832031 -74.199219 18.707031 -84.488281 14.699219 -89.554688 C 13.03125 -91.660156 11.5 -93.109375 10.101562 -93.898438 C 9.257812 -94.375 8.535156 -94.550781 7.929688 -94.425781 C 7.4375 -94.324219 7.128906 -94.246094 7.007812 -94.195312 L 0.980469 -91.648438 L -0.566406 -99.179688 C -0.746094 -100.066406 -1.234375 -100.765625 -2.023438 -101.289062 C -2.8125 -101.808594 -3.648438 -101.980469 -4.535156 -101.796875 C -5.511719 -101.597656 -6.261719 -101.101562 -6.78125 -100.3125 C -7.304688 -99.523438 -7.472656 -98.683594 -7.292969 -97.800781 L -1.628906 -70.195312 C -0.101562 -62.757812 2.335938 -53.121094 5.679688 -41.28125 C 8.9375 -29.75 11.359375 -22.613281 12.945312 -19.867188 L 13.382812 -19.113281 L 13.558594 -18.261719 C 14.148438 -15.375 15.671875 -12.414062 18.128906 -9.375 C 19.761719 -7.351562 21.238281 -6.476562 22.5625 -6.746094 C 24.492188 -7.144531 26.285156 -8.179688 27.941406 -9.851562 C 28.574219 -10.492188 28.984375 -11.089844 29.175781 -11.648438 C 29.316406 -12.0625 29.339844 -12.515625 29.238281 -13.007812 C 29.070312 -13.820312 28.589844 -14.585938 27.789062 -15.304688 L 26.953125 -16.058594 L 23.527344 -23.664062 C 16.566406 -39.359375 12.523438 -48.941406 11.402344 -52.40625 L 9.816406 -57.300781 L 20.839844 -61.386719 L 23.027344 -57.191406 C 24.234375 -54.871094 28.671875 -47.746094 36.328125 -35.808594 C 37.015625 -34.714844 38.019531 -33.902344 39.339844 -33.363281 C 40.726562 -32.800781 41.964844 -32.632812 43.050781 -32.855469 C 43.644531 -32.976562 44.121094 -33.183594 44.484375 -33.480469 C 44.878906 -33.800781 45.21875 -34.277344 45.511719 -34.910156 L 50.390625 -32.683594 L 45.417969 -34.699219 C 46.125 -36.4375 46.90625 -41.957031 47.761719 -51.253906 Z M 48.015625 -54.015625 "/></g></g></g><g fill="#000a1f" fill-opacity="1"><g transform="translate(274.812173, 216.222767)"><g><path d="M 53.109375 -50.75 C 52.203125 -40.925781 51.296875 -34.90625 50.390625 -32.6875 C 49.109375 -29.894531 47.019531 -28.203125 44.125 -27.609375 C 41.976562 -27.160156 39.707031 -27.421875 37.3125 -28.390625 C 34.925781 -29.359375 33.085938 -30.878906 31.796875 -32.953125 C 24.066406 -45.003906 19.554688 -52.257812 18.265625 -54.71875 L 16.5 -54.0625 C 17.570312 -50.769531 21.550781 -41.359375 28.4375 -25.828125 L 31.390625 -19.296875 C 33.054688 -17.785156 34.09375 -16.046875 34.5 -14.078125 C 35.09375 -11.191406 34.175781 -8.523438 31.75 -6.078125 C 29.320312 -3.628906 26.613281 -2.097656 23.625 -1.484375 C 20.175781 -0.773438 16.953125 -2.28125 13.953125 -6 C 10.960938 -9.71875 9.082031 -13.441406 8.3125 -17.171875 C 6.5 -20.304688 3.898438 -27.851562 0.515625 -39.8125 C -2.859375 -51.78125 -5.320312 -61.550781 -6.875 -69.125 L -12.53125 -96.71875 C -13.007812 -99.050781 -12.582031 -101.226562 -11.25 -103.25 C -9.925781 -105.28125 -8.050781 -106.546875 -5.625 -107.046875 C -3.289062 -107.523438 -1.109375 -107.09375 0.921875 -105.75 C 2.960938 -104.414062 4.222656 -102.582031 4.703125 -100.25 L 4.921875 -99.125 C 5.378906 -99.320312 6.023438 -99.503906 6.859375 -99.671875 C 10.679688 -100.453125 14.691406 -98.1875 18.890625 -92.875 C 23.097656 -87.5625 29.40625 -77.007812 37.8125 -61.21875 C 38.90625 -71.5625 39.351562 -78.660156 39.15625 -82.515625 C 39.226562 -97.796875 39.285156 -106.03125 39.328125 -107.21875 C 39.285156 -111.207031 40.664062 -113.488281 43.46875 -114.0625 C 47.207031 -114.820312 51.40625 -113.835938 56.0625 -111.109375 C 58.84375 -107.003906 62.96875 -91.640625 68.4375 -65.015625 L 72.3125 -46.09375 L 74.53125 -35.296875 C 74.550781 -35.210938 75.394531 -32.515625 77.0625 -27.203125 C 78.738281 -21.898438 79.722656 -18.550781 80.015625 -17.15625 C 80.609375 -14.738281 80.238281 -12.492188 78.90625 -10.421875 C 77.582031 -8.347656 75.703125 -7.0625 73.265625 -6.5625 C 70.929688 -6.082031 68.753906 -6.484375 66.734375 -7.765625 C 64.722656 -9.054688 63.441406 -10.816406 62.890625 -13.046875 L 61.90625 -17.078125 L 54.6875 -51.53125 L 54.65625 -51.671875 Z M 53.109375 -50.75 "/></g></g></g><g fill="#0097b2" fill-opacity="1"><g transform="translate(228.26881, 230.577823)"><g><path d="M 54.8125 -53.8125 C 58.574219 -54.585938 62.101562 -53.917969 65.398438 -51.804688 C 68.742188 -49.664062 70.804688 -46.6875 71.589844 -42.871094 C 72.367188 -39.085938 71.660156 -35.535156 69.472656 -32.214844 C 67.28125 -28.894531 64.292969 -26.847656 60.507812 -26.070312 L 59.105469 -25.78125 L 58.027344 -31.035156 L 63.28125 -32.113281 L 63.945312 -28.890625 L 58.6875 -27.8125 L 63.125 -30.832031 L 64.171875 -29.292969 L 59.734375 -26.277344 L 64.097656 -29.394531 C 65.085938 -28.015625 65.773438 -26.390625 66.152344 -24.527344 C 66.925781 -20.769531 66.257812 -17.242188 64.144531 -13.945312 C 62.003906 -10.597656 58.980469 -8.523438 55.074219 -7.722656 C 52.71875 -7.242188 50.441406 -7.34375 48.246094 -8.03125 C 46.140625 -8.691406 44.199219 -9.867188 42.417969 -11.5625 C 39.246094 -14.578125 37.183594 -18.410156 36.226562 -23.058594 L 35.539062 -26.421875 L 40.792969 -27.5 L 41.871094 -22.246094 L 26.316406 -19.054688 L 25.238281 -24.308594 L 30.601562 -24.292969 C 30.597656 -21.859375 30.515625 -19.292969 30.367188 -16.585938 C 30.292969 -15.296875 30.242188 -14.324219 30.210938 -13.664062 C 30.195312 -13.355469 30.1875 -13.125 30.183594 -12.972656 C 30.179688 -12.933594 30.179688 -12.910156 30.179688 -12.90625 C 30.179688 -13.226562 30.144531 -13.558594 30.074219 -13.910156 L 30.191406 -13.332031 L 30.183594 -12.746094 C 30.125 -9.292969 29.539062 -6.445312 28.414062 -4.199219 C 26.878906 -1.125 24.183594 0.804688 20.332031 1.597656 C 18.375 1.996094 16.566406 2.015625 14.90625 1.652344 L 16.058594 -3.585938 L 19.914062 0.140625 C 17.621094 2.515625 15.417969 3.917969 13.304688 4.351562 C 11.742188 4.671875 10.242188 4.585938 8.808594 4.09375 C 7.394531 3.609375 6.164062 2.769531 5.121094 1.570312 C 4.046875 0.34375 2.886719 -1.394531 1.628906 -3.636719 L 1.546875 -3.785156 L 1.472656 -3.9375 C 0.941406 -5.042969 0.527344 -6.328125 0.226562 -7.785156 C -1.382812 -15.632812 -2.054688 -31.679688 -1.785156 -55.917969 C -1.515625 -80.234375 -0.429688 -95.867188 1.472656 -102.808594 L 6.648438 -101.390625 L 1.285156 -101.558594 C 1.386719 -104.800781 2.40625 -107.640625 4.339844 -110.078125 C 6.347656 -112.609375 9.109375 -114.234375 12.625 -114.957031 C 13.988281 -115.238281 15.480469 -115.34375 17.101562 -115.273438 L 16.871094 -109.914062 L 11.785156 -111.621094 C 12.628906 -114.132812 13.945312 -116.195312 15.738281 -117.804688 C 17.546875 -119.429688 19.746094 -120.507812 22.328125 -121.035156 C 26.992188 -121.992188 30.921875 -121.035156 34.113281 -118.164062 C 36.839844 -115.710938 38.722656 -111.949219 39.765625 -106.871094 L 34.511719 -105.792969 L 39.59375 -107.503906 L 44.464844 -93.023438 L 54.171875 -64.210938 L 59.011719 -49.871094 L 53.929688 -48.15625 L 52.851562 -53.410156 Z M 56.972656 -43.304688 L 50.363281 -41.949219 L 44.007812 -60.785156 L 34.296875 -89.605469 L 29.320312 -104.394531 L 29.253906 -104.714844 C 28.6875 -107.488281 27.914062 -109.3125 26.9375 -110.1875 C 26.429688 -110.644531 25.613281 -110.757812 24.484375 -110.527344 C 23.800781 -110.386719 23.273438 -110.152344 22.90625 -109.820312 C 22.515625 -109.472656 22.203125 -108.933594 21.957031 -108.207031 L 20.675781 -104.382812 L 16.644531 -104.554688 C 15.90625 -104.585938 15.285156 -104.550781 14.78125 -104.445312 C 13.8125 -104.25 13.136719 -103.902344 12.746094 -103.410156 C 12.28125 -102.828125 12.035156 -102.097656 12.007812 -101.222656 L 11.988281 -100.585938 L 11.820312 -99.972656 C 10.160156 -93.917969 9.203125 -79.195312 8.941406 -55.800781 C 8.683594 -32.324219 9.28125 -17.039062 10.738281 -9.941406 C 10.859375 -9.347656 10.996094 -8.890625 11.144531 -8.578125 L 6.308594 -6.257812 L 10.988281 -8.878906 C 11.882812 -7.28125 12.625 -6.148438 13.207031 -5.476562 C 12.992188 -5.726562 12.6875 -5.917969 12.289062 -6.050781 C 11.878906 -6.195312 11.496094 -6.230469 11.148438 -6.15625 C 10.972656 -6.121094 10.832031 -6.078125 10.722656 -6.027344 C 10.746094 -6.035156 10.796875 -6.070312 10.875 -6.125 C 11.234375 -6.375 11.675781 -6.773438 12.199219 -7.316406 L 14.28125 -9.46875 L 17.207031 -8.828125 C 17.382812 -8.789062 17.707031 -8.816406 18.175781 -8.914062 C 18.558594 -8.992188 18.816406 -9.078125 18.957031 -9.171875 C 18.90625 -9.136719 18.859375 -9.078125 18.816406 -8.996094 C 19.214844 -9.789062 19.425781 -11.09375 19.457031 -12.917969 L 24.820312 -12.832031 L 19.566406 -11.753906 C 19.453125 -12.300781 19.480469 -14.113281 19.652344 -17.1875 C 19.792969 -19.703125 19.867188 -22.082031 19.875 -24.324219 L 19.886719 -28.6875 L 44.96875 -33.832031 L 46.738281 -25.214844 C 47.242188 -22.765625 48.265625 -20.804688 49.808594 -19.335938 C 50.386719 -18.789062 50.9375 -18.433594 51.457031 -18.269531 C 51.886719 -18.132812 52.375 -18.121094 52.917969 -18.234375 C 53.867188 -18.425781 54.597656 -18.925781 55.109375 -19.726562 C 55.652344 -20.578125 55.832031 -21.457031 55.644531 -22.371094 C 55.566406 -22.746094 55.476562 -23.011719 55.371094 -23.15625 L 55.335938 -23.207031 L 53.648438 -25.683594 L 51.695312 -35.214844 L 58.351562 -36.578125 C 59.234375 -36.761719 59.957031 -37.273438 60.515625 -38.121094 C 61.074219 -38.964844 61.261719 -39.832031 61.078125 -40.714844 C 60.902344 -41.574219 60.414062 -42.257812 59.613281 -42.769531 C 58.765625 -43.3125 57.882812 -43.492188 56.972656 -43.304688 Z M 24.6875 -47.632812 L 35.617188 -49.875 L 36.695312 -44.621094 L 31.542969 -43.125 C 27.597656 -56.730469 24.675781 -65.875 22.777344 -70.554688 L 27.746094 -72.574219 L 31.558594 -68.800781 L 30.109375 -67.332031 L 26.296875 -71.105469 L 31.660156 -71.007812 L 31.128906 -42.277344 L 25.765625 -42.378906 Z M 26.84375 -37.121094 L 20.277344 -35.777344 L 20.972656 -73.355469 L 29.660156 -82.128906 L 32.71875 -74.589844 C 34.757812 -69.566406 37.800781 -60.074219 41.847656 -46.113281 L 43.464844 -40.535156 Z M 26.84375 -37.121094 "/></g></g></g><g fill="#000a1f" fill-opacity="1"><g transform="translate(228.26881, 230.577823)"><g><path d="M 55.90625 -48.5625 C 58.238281 -49.039062 60.441406 -48.613281 62.515625 -47.28125 C 64.585938 -45.957031 65.863281 -44.128906 66.34375 -41.796875 C 66.820312 -39.460938 66.375 -37.253906 65 -35.171875 C 63.625 -33.085938 61.769531 -31.804688 59.4375 -31.328125 L 58.03125 -31.03125 L 58.6875 -27.8125 L 59.734375 -26.28125 C 60.285156 -25.507812 60.675781 -24.566406 60.90625 -23.453125 C 61.382812 -21.117188 60.957031 -18.914062 59.625 -16.84375 C 58.300781 -14.769531 56.421875 -13.484375 53.984375 -12.984375 C 51.085938 -12.390625 48.460938 -13.210938 46.109375 -15.453125 C 43.753906 -17.691406 42.210938 -20.585938 41.484375 -24.140625 L 40.796875 -27.5 L 25.234375 -24.3125 C 25.222656 -21.976562 25.144531 -19.503906 25 -16.890625 C 24.863281 -14.273438 24.804688 -12.921875 24.828125 -12.828125 C 24.773438 -10.191406 24.367188 -8.113281 23.609375 -6.59375 C 22.859375 -5.070312 21.40625 -4.09375 19.25 -3.65625 C 18.039062 -3.40625 16.976562 -3.382812 16.0625 -3.59375 C 14.53125 -2.007812 13.25 -1.109375 12.21875 -0.890625 C 11.007812 -0.640625 9.988281 -0.992188 9.15625 -1.953125 C 8.332031 -2.910156 7.378906 -4.347656 6.296875 -6.265625 C 5.972656 -6.972656 5.707031 -7.835938 5.5 -8.859375 C 3.957031 -16.335938 3.316406 -32.003906 3.578125 -55.859375 C 3.835938 -79.710938 4.863281 -94.890625 6.65625 -101.390625 C 6.71875 -103.441406 7.347656 -105.222656 8.546875 -106.734375 C 9.742188 -108.242188 11.460938 -109.226562 13.703125 -109.6875 C 14.640625 -109.882812 15.695312 -109.960938 16.875 -109.921875 C 17.957031 -113.160156 20.132812 -115.113281 23.40625 -115.78125 C 29.195312 -116.976562 32.898438 -113.65625 34.515625 -105.8125 L 39.390625 -91.296875 C 42.628906 -81.648438 45.863281 -72.050781 49.09375 -62.5 L 53.9375 -48.15625 Z M 25.78125 -42.375 L 36.703125 -44.625 C 32.703125 -58.40625 29.710938 -67.71875 27.734375 -72.5625 L 26.296875 -71.109375 C 26.296875 -70.140625 26.125 -60.5625 25.78125 -42.375 Z M 25.78125 -42.375 "/></g></g></g><g fill="#0097b2" fill-opacity="1"><g transform="translate(179.432148, 248.198434)"><g><path d="M 1.597656 -103.292969 C 0.691406 -104.019531 -0.195312 -104.292969 -1.066406 -104.117188 C -1.871094 -103.949219 -2.570312 -103.535156 -3.167969 -102.867188 C -3.683594 -102.285156 -3.957031 -101.617188 -3.980469 -100.863281 L -9.339844 -101.03125 L -3.976562 -101.019531 C -4.003906 -88.238281 -2.195312 -72.964844 1.449219 -55.203125 C 2.824219 -48.511719 5.214844 -41.484375 8.621094 -34.128906 C 11.972656 -26.890625 15.855469 -20.851562 20.261719 -16.007812 C 22.210938 -13.863281 23.984375 -12.382812 25.578125 -11.570312 C 26.636719 -11.027344 27.53125 -10.832031 28.265625 -10.984375 C 28.933594 -11.121094 29.355469 -11.257812 29.527344 -11.394531 L 30.523438 -12.175781 L 31.765625 -12.433594 C 32.355469 -12.554688 32.8125 -12.6875 33.140625 -12.835938 C 33.210938 -12.867188 33.257812 -12.890625 33.277344 -12.90625 C 33.222656 -12.867188 33.160156 -12.8125 33.089844 -12.734375 L 33.175781 -12.828125 L 33.265625 -12.914062 C 47.777344 -26.890625 52.15625 -47.90625 46.398438 -75.960938 C 44.304688 -86.164062 40.039062 -94.320312 33.601562 -100.429688 C 30.597656 -103.28125 27.421875 -105.203125 24.070312 -106.195312 C 20.757812 -107.179688 17.179688 -107.277344 13.339844 -106.488281 C 12.472656 -106.308594 11.753906 -106.101562 11.183594 -105.859375 C 10.925781 -105.75 10.714844 -105.652344 10.558594 -105.558594 L 10.53125 -105.558594 C 10.15625 -105.242188 9.84375 -104.964844 9.59375 -104.726562 C 9.542969 -104.675781 9.507812 -104.640625 9.488281 -104.621094 C 9.539062 -104.675781 9.597656 -104.753906 9.664062 -104.855469 L 6.191406 -99.59375 Z M 8.324219 -111.648438 L 4.960938 -107.46875 L 0.484375 -110.421875 L 0.707031 -110.761719 C 1.078125 -111.324219 1.574219 -111.902344 2.195312 -112.496094 C 2.597656 -112.878906 3.070312 -113.296875 3.605469 -113.75 C 4.476562 -114.488281 5.613281 -115.152344 7.007812 -115.742188 C 8.230469 -116.257812 9.621094 -116.675781 11.183594 -116.996094 C 16.777344 -118.144531 22.089844 -117.972656 27.121094 -116.480469 C 32.117188 -115 36.738281 -112.246094 40.988281 -108.210938 C 49.054688 -100.554688 54.363281 -90.523438 56.910156 -78.117188 C 63.457031 -46.203125 58.058594 -21.890625 40.707031 -5.1875 L 36.984375 -9.050781 L 40.882812 -5.363281 C 39.308594 -3.699219 36.988281 -2.550781 33.921875 -1.921875 L 32.84375 -7.175781 L 36.15625 -2.960938 C 34.65625 -1.78125 32.742188 -0.949219 30.421875 -0.472656 C 24.503906 0.738281 18.472656 -2.03125 12.324219 -8.785156 C 7.179688 -14.441406 2.699219 -21.386719 -1.113281 -29.617188 C -4.871094 -37.730469 -7.519531 -45.539062 -9.058594 -53.046875 C -12.851562 -71.527344 -14.734375 -87.527344 -14.707031 -101.042969 L -14.707031 -101.121094 L -14.703125 -101.199219 C -14.597656 -104.558594 -13.417969 -107.496094 -11.164062 -110.015625 C -8.992188 -112.449219 -6.34375 -113.984375 -3.222656 -114.625 C 0.949219 -115.480469 4.796875 -114.488281 8.324219 -111.648438 Z M 14.425781 -98.707031 C 21.652344 -97.914062 27.613281 -94.917969 32.308594 -89.71875 C 36.738281 -84.808594 39.714844 -78.652344 41.234375 -71.25 C 42.660156 -64.304688 42.65625 -57.019531 41.222656 -49.390625 C 39.792969 -41.785156 37.0625 -34.78125 33.023438 -28.390625 L 27.347656 -19.40625 L 23.488281 -29.304688 C 17.828125 -43.832031 14.132812 -55.304688 12.402344 -63.730469 C 11.429688 -68.46875 10.132812 -78.152344 8.507812 -92.785156 L 7.769531 -99.4375 Z M 13.257812 -88.042969 L 13.839844 -93.375 L 19.171875 -93.96875 C 20.761719 -79.664062 22.007812 -70.300781 22.914062 -65.886719 C 24.519531 -58.054688 28.042969 -47.160156 33.484375 -33.203125 L 28.488281 -31.253906 L 23.953125 -34.117188 C 27.261719 -39.355469 29.503906 -45.109375 30.679688 -51.371094 C 31.851562 -57.617188 31.867188 -63.523438 30.722656 -69.09375 C 29.597656 -74.585938 27.46875 -79.066406 24.34375 -82.53125 C 21.472656 -85.710938 17.777344 -87.546875 13.257812 -88.042969 Z M 13.257812 -88.042969 "/></g></g></g><g fill="#000a1f" fill-opacity="1"><g transform="translate(179.432148, 248.198434)"><g><path d="M 4.953125 -107.484375 C 2.742188 -109.265625 0.378906 -109.894531 -2.140625 -109.375 C -4.109375 -108.96875 -5.785156 -107.988281 -7.171875 -106.4375 C -8.554688 -104.894531 -9.28125 -103.09375 -9.34375 -101.03125 C -9.363281 -87.875 -7.515625 -72.238281 -3.796875 -54.125 C -2.335938 -47.019531 0.175781 -39.597656 3.75 -31.859375 C 7.332031 -24.128906 11.515625 -17.640625 16.296875 -12.390625 C 21.078125 -7.140625 25.425781 -4.921875 29.34375 -5.734375 C 30.84375 -6.035156 32.007812 -6.507812 32.84375 -7.15625 C 34.8125 -7.5625 36.191406 -8.191406 36.984375 -9.046875 C 52.921875 -24.390625 57.816406 -47.054688 51.671875 -77.046875 C 49.347656 -88.335938 44.554688 -97.425781 37.296875 -104.3125 C 30.046875 -111.195312 21.703125 -113.671875 12.265625 -111.734375 C 11.046875 -111.484375 9.988281 -111.171875 9.09375 -110.796875 C 8.195312 -110.421875 7.519531 -110.039062 7.0625 -109.65625 C 6.613281 -109.269531 6.222656 -108.921875 5.890625 -108.609375 C 5.566406 -108.304688 5.332031 -108.035156 5.1875 -107.796875 Z M 13.84375 -93.375 C 19.71875 -92.726562 24.546875 -90.3125 28.328125 -86.125 C 32.109375 -81.9375 34.660156 -76.625 35.984375 -70.1875 C 37.265625 -63.914062 37.253906 -57.3125 35.953125 -50.375 C 34.648438 -43.445312 32.160156 -37.070312 28.484375 -31.25 C 22.929688 -45.488281 19.320312 -56.675781 17.65625 -64.8125 C 16.71875 -69.394531 15.445312 -78.914062 13.84375 -93.375 Z M 13.84375 -93.375 "/></g></g></g><g fill="#0097b2" fill-opacity="1"><g transform="translate(124.48448, 259.762191)"><g><path d="M 54.8125 -53.8125 C 58.574219 -54.585938 62.101562 -53.917969 65.398438 -51.804688 C 68.742188 -49.664062 70.804688 -46.6875 71.589844 -42.871094 C 72.367188 -39.085938 71.660156 -35.535156 69.472656 -32.214844 C 67.28125 -28.894531 64.292969 -26.847656 60.507812 -26.070312 L 59.105469 -25.78125 L 58.027344 -31.035156 L 63.28125 -32.113281 L 63.945312 -28.890625 L 58.6875 -27.8125 L 63.125 -30.832031 L 64.171875 -29.292969 L 59.734375 -26.277344 L 64.097656 -29.394531 C 65.085938 -28.015625 65.773438 -26.390625 66.152344 -24.527344 C 66.925781 -20.769531 66.257812 -17.242188 64.144531 -13.945312 C 62.003906 -10.597656 58.980469 -8.523438 55.074219 -7.722656 C 52.71875 -7.242188 50.441406 -7.34375 48.246094 -8.03125 C 46.140625 -8.691406 44.199219 -9.867188 42.417969 -11.5625 C 39.246094 -14.578125 37.183594 -18.410156 36.226562 -23.058594 L 35.539062 -26.421875 L 40.792969 -27.5 L 41.871094 -22.246094 L 26.316406 -19.054688 L 25.238281 -24.308594 L 30.601562 -24.292969 C 30.597656 -21.859375 30.515625 -19.292969 30.367188 -16.585938 C 30.292969 -15.296875 30.242188 -14.324219 30.210938 -13.664062 C 30.195312 -13.355469 30.1875 -13.125 30.183594 -12.972656 C 30.179688 -12.933594 30.179688 -12.910156 30.179688 -12.90625 C 30.179688 -13.226562 30.144531 -13.558594 30.074219 -13.910156 L 30.191406 -13.332031 L 30.183594 -12.746094 C 30.125 -9.292969 29.539062 -6.445312 28.414062 -4.199219 C 26.878906 -1.125 24.183594 0.804688 20.332031 1.597656 C 18.375 1.996094 16.566406 2.015625 14.90625 1.652344 L 16.058594 -3.585938 L 19.914062 0.140625 C 17.621094 2.515625 15.417969 3.917969 13.304688 4.351562 C 11.742188 4.671875 10.242188 4.585938 8.808594 4.09375 C 7.394531 3.609375 6.164062 2.769531 5.121094 1.570312 C 4.046875 0.34375 2.886719 -1.394531 1.628906 -3.636719 L 1.546875 -3.785156 L 1.472656 -3.9375 C 0.941406 -5.042969 0.527344 -6.328125 0.226562 -7.785156 C -1.382812 -15.632812 -2.054688 -31.679688 -1.785156 -55.917969 C -1.515625 -80.234375 -0.429688 -95.867188 1.472656 -102.808594 L 6.648438 -101.390625 L 1.285156 -101.558594 C 1.386719 -104.800781 2.40625 -107.640625 4.339844 -110.078125 C 6.347656 -112.609375 9.109375 -114.234375 12.625 -114.957031 C 13.988281 -115.238281 15.480469 -115.34375 17.101562 -115.273438 L 16.871094 -109.914062 L 11.785156 -111.621094 C 12.628906 -114.132812 13.945312 -116.195312 15.738281 -117.804688 C 17.546875 -119.429688 19.746094 -120.507812 22.328125 -121.035156 C 26.992188 -121.992188 30.921875 -121.035156 34.113281 -118.164062 C 36.839844 -115.710938 38.722656 -111.949219 39.765625 -106.871094 L 34.511719 -105.792969 L 39.59375 -107.503906 L 44.464844 -93.023438 L 54.171875 -64.210938 L 59.011719 -49.871094 L 53.929688 -48.15625 L 52.851562 -53.410156 Z M 56.972656 -43.304688 L 50.363281 -41.949219 L 44.007812 -60.785156 L 34.296875 -89.605469 L 29.320312 -104.394531 L 29.253906 -104.714844 C 28.6875 -107.488281 27.914062 -109.3125 26.9375 -110.1875 C 26.429688 -110.644531 25.613281 -110.757812 24.484375 -110.527344 C 23.800781 -110.386719 23.273438 -110.152344 22.90625 -109.820312 C 22.515625 -109.472656 22.203125 -108.933594 21.957031 -108.207031 L 20.675781 -104.382812 L 16.644531 -104.554688 C 15.90625 -104.585938 15.285156 -104.550781 14.78125 -104.445312 C 13.8125 -104.25 13.136719 -103.902344 12.746094 -103.410156 C 12.28125 -102.828125 12.035156 -102.097656 12.007812 -101.222656 L 11.988281 -100.585938 L 11.820312 -99.972656 C 10.160156 -93.917969 9.203125 -79.195312 8.941406 -55.800781 C 8.683594 -32.324219 9.28125 -17.039062 10.738281 -9.941406 C 10.859375 -9.347656 10.996094 -8.890625 11.144531 -8.578125 L 6.308594 -6.257812 L 10.988281 -8.878906 C 11.882812 -7.28125 12.625 -6.148438 13.207031 -5.476562 C 12.992188 -5.726562 12.6875 -5.917969 12.289062 -6.050781 C 11.878906 -6.195312 11.496094 -6.230469 11.148438 -6.15625 C 10.972656 -6.121094 10.832031 -6.078125 10.722656 -6.027344 C 10.746094 -6.035156 10.796875 -6.070312 10.875 -6.125 C 11.234375 -6.375 11.675781 -6.773438 12.199219 -7.316406 L 14.28125 -9.46875 L 17.207031 -8.828125 C 17.382812 -8.789062 17.707031 -8.816406 18.175781 -8.914062 C 18.558594 -8.992188 18.816406 -9.078125 18.957031 -9.171875 C 18.90625 -9.136719 18.859375 -9.078125 18.816406 -8.996094 C 19.214844 -9.789062 19.425781 -11.09375 19.457031 -12.917969 L 24.820312 -12.832031 L 19.566406 -11.753906 C 19.453125 -12.300781 19.480469 -14.113281 19.652344 -17.1875 C 19.792969 -19.703125 19.867188 -22.082031 19.875 -24.324219 L 19.886719 -28.6875 L 44.96875 -33.832031 L 46.738281 -25.214844 C 47.242188 -22.765625 48.265625 -20.804688 49.808594 -19.335938 C 50.386719 -18.789062 50.9375 -18.433594 51.457031 -18.269531 C 51.886719 -18.132812 52.375 -18.121094 52.917969 -18.234375 C 53.867188 -18.425781 54.597656 -18.925781 55.109375 -19.726562 C 55.652344 -20.578125 55.832031 -21.457031 55.644531 -22.371094 C 55.566406 -22.746094 55.476562 -23.011719 55.371094 -23.15625 L 55.335938 -23.207031 L 53.648438 -25.683594 L 51.695312 -35.214844 L 58.351562 -36.578125 C 59.234375 -36.761719 59.957031 -37.273438 60.515625 -38.121094 C 61.074219 -38.964844 61.261719 -39.832031 61.078125 -40.714844 C 60.902344 -41.574219 60.414062 -42.257812 59.613281 -42.769531 C 58.765625 -43.3125 57.882812 -43.492188 56.972656 -43.304688 Z M 24.6875 -47.632812 L 35.617188 -49.875 L 36.695312 -44.621094 L 31.542969 -43.125 C 27.597656 -56.730469 24.675781 -65.875 22.777344 -70.554688 L 27.746094 -72.574219 L 31.558594 -68.800781 L 30.109375 -67.332031 L 26.296875 -71.105469 L 31.660156 -71.007812 L 31.128906 -42.277344 L 25.765625 -42.378906 Z M 26.84375 -37.121094 L 20.277344 -35.777344 L 20.972656 -73.355469 L 29.660156 -82.128906 L 32.71875 -74.589844 C 34.757812 -69.566406 37.800781 -60.074219 41.847656 -46.113281 L 43.464844 -40.535156 Z M 26.84375 -37.121094 "/></g></g></g><g fill="#000a1f" fill-opacity="1"><g transform="translate(124.48448, 259.762191)"><g><path d="M 55.90625 -48.5625 C 58.238281 -49.039062 60.441406 -48.613281 62.515625 -47.28125 C 64.585938 -45.957031 65.863281 -44.128906 66.34375 -41.796875 C 66.820312 -39.460938 66.375 -37.253906 65 -35.171875 C 63.625 -33.085938 61.769531 -31.804688 59.4375 -31.328125 L 58.03125 -31.03125 L 58.6875 -27.8125 L 59.734375 -26.28125 C 60.285156 -25.507812 60.675781 -24.566406 60.90625 -23.453125 C 61.382812 -21.117188 60.957031 -18.914062 59.625 -16.84375 C 58.300781 -14.769531 56.421875 -13.484375 53.984375 -12.984375 C 51.085938 -12.390625 48.460938 -13.210938 46.109375 -15.453125 C 43.753906 -17.691406 42.210938 -20.585938 41.484375 -24.140625 L 40.796875 -27.5 L 25.234375 -24.3125 C 25.222656 -21.976562 25.144531 -19.503906 25 -16.890625 C 24.863281 -14.273438 24.804688 -12.921875 24.828125 -12.828125 C 24.773438 -10.191406 24.367188 -8.113281 23.609375 -6.59375 C 22.859375 -5.070312 21.40625 -4.09375 19.25 -3.65625 C 18.039062 -3.40625 16.976562 -3.382812 16.0625 -3.59375 C 14.53125 -2.007812 13.25 -1.109375 12.21875 -0.890625 C 11.007812 -0.640625 9.988281 -0.992188 9.15625 -1.953125 C 8.332031 -2.910156 7.378906 -4.347656 6.296875 -6.265625 C 5.972656 -6.972656 5.707031 -7.835938 5.5 -8.859375 C 3.957031 -16.335938 3.316406 -32.003906 3.578125 -55.859375 C 3.835938 -79.710938 4.863281 -94.890625 6.65625 -101.390625 C 6.71875 -103.441406 7.347656 -105.222656 8.546875 -106.734375 C 9.742188 -108.242188 11.460938 -109.226562 13.703125 -109.6875 C 14.640625 -109.882812 15.695312 -109.960938 16.875 -109.921875 C 17.957031 -113.160156 20.132812 -115.113281 23.40625 -115.78125 C 29.195312 -116.976562 32.898438 -113.65625 34.515625 -105.8125 L 39.390625 -91.296875 C 42.628906 -81.648438 45.863281 -72.050781 49.09375 -62.5 L 53.9375 -48.15625 Z M 25.78125 -42.375 L 36.703125 -44.625 C 32.703125 -58.40625 29.710938 -67.71875 27.734375 -72.5625 L 26.296875 -71.109375 C 26.296875 -70.140625 26.125 -60.5625 25.78125 -42.375 Z M 25.78125 -42.375 "/></g></g></g></svg>